<svg version="1.2" xmlns="http://www.w3.org/2000/svg" viewBox="0 0 64 64" width="64" height="64">
	<title>jetbrains pk ide logo mock</title>
		<defs>
   			<linearGradient id="a" x1="7.62141" x2="61.2476" y1="64.7192" y2="39.8564" gradientUnits="userSpaceOnUse">
				<stop offset=".22" stop-color="#B57EDC"/> /*this is the bottom left color*/
	   			<stop offset=".59" stop-color="#5D3FD3"/> /*this is the bottom right*/
   			</linearGradient>
   			<linearGradient id="b" x1="60.0186" x2="1.31316" y1="59.7777" y2="1.07287" gradientUnits="userSpaceOnUse">
     			<stop offset=".19" stop-color="#5D3FD3"/> /*top left bottom*/
      			<stop offset=".83" stop-color="#BF00FF"/>/*top left top*/
    		</linearGradient>
  		</defs>
	<style>
		tspan { white-space:pre }
		.t4 { font-size: 24px;fill: #ffffff;font-weight: 700;font-family: "Montserrat-Bold", "Montserrat" } 
	</style> /* VVV down here the top right color*/
  <path fill="#B57EDC" d="m5.81836 48.0512.00174 11.8755c0 2.2493 1.82342 4.0721 4.07273 4.0721H21.3994c1.1887 0 2.3186-.5196 3.0924-1.422l32.7098-38.1614c.6325-.7383.9804-1.6786.9804-2.6508V9.88913c0-2.24931-1.8234-4.07272-4.0727-4.07272H42.6009c-1.1887 0-2.3185.51956-3.0924 1.42196L6.79872 45.3998c-.63302.7383-.98036 1.6786-.98036 2.6514Z"/>
  <path fill="url(#a)" d="M5.81836 49.4825v10.4466c0 2.2493 1.82342 4.0727 4.07273 4.0727H22.9837c.1926 0 .3852-.014.576-.0407l36.9437-5.2771c2.0067-.2868 3.4968-2.005 3.4968-4.032V38.979c0-2.2499-1.824-4.0733-4.0739-4.0727l-18.5385.0046c-.4375 0-.8721.0704-1.287.2089L8.60294 45.6193c-1.66284.5544-2.78458 2.1108-2.78458 3.8638v-.0006Z"/>
  <path fill="url(#b)" d="M0 4.07273V38.041c0 1.6291.971054 3.1017 2.46807 3.7434L39.9587 57.8525c.5067.217 1.0531.3293 1.6046.3293h18.364c2.2493 0 4.0727-1.8234 4.0727-4.0727v-17.966c0-.8046-.2386-1.5913-.6854-2.2609L41.9113 1.81353C41.1561.681309 39.8854.001745 38.5239.001745L4.07273 0C1.82342 0 0 1.82342 0 4.07273Z"/>
  <path fill="#000" d="M52 12H12v40h40V12Z"/>
	<text id="PK" style="transform: matrix(1,0,0,1,13,33)" >
		<tspan x="0" y="0" class="t4">P</tspan><tspan  y="0" class="t4">K
</tspan>
	</text>
	<text id="_" style="transform: matrix(1.412,0,0,1.412,15,44.196)" >
		<tspan x="0" y="0" class="t4">_
</tspan>
	</text>
</svg>
